Patient4_TMGait_0pt7_01_left_43_EMG.mot
version=1
nRows=30
nColumns=33
inDegrees=no
endheader
time	1LAddLong	2LGlutMax	3LGlutMed	4LIliopsoas	5LSemiMemb	6LBicFemLong	7LRecFem	8LVastMed	9LVastLat	10LGasMed	11LTibAnt	12lTibPost	13LPeroneusLong	14LSol	15LExtDigLong	16LFlexDigLong	17RAddLong	18RGlutMax	19RGlutMed	20RIliopsoas	21RSemiMemb	22RBicFemLong	23RRecFem	24RVastMed	25RVastLat	26RGasMed	27RTibAnt	28RTibPost	29RPeroneusLong	30RSol	31RExtDigLong	32RFlexDigLong
49.8	0.00824	-0.81634	-0.058594	0.01297	-0.028687	0.00412	-0.033875	0.015411	-0.38742	0.030823	0.15411	0.007172	0.016937	-0.00473	-0.10941	-0.008087	0.015411	-0.044861	0.12848	0.062866	-0.16464	-0.064087	-0.2449	0.11459	-0.33981	-0.007324	0.18478	-0.006714	-0.021515	-0.1886	-0.00061	-0.000763
49.801	0.005951	-0.76614	-0.05127	0.013275	-0.009766	-0.001831	-0.024414	0.017548	-0.31555	0.027008	0.11475	0.021973	-0.034637	0.024261	-0.1059	-0.016632	0.036316	0.036774	-0.077972	0.032349	0.17761	-0.014343	-0.14877	-0.009613	-0.48202	0.012665	0.28534	-0.012207	0.81253	-0.23605	0.007324	-0.006104
49.802	0.00946	-0.78598	-0.032501	0.023041	-0.027771	0.002441	-0.028381	0.01709	-0.25604	0.049286	-0.14175	0.011139	0.007172	0.036011	-0.076294	0.003967	0.051575	-0.088959	0.38437	0.022278	0.18249	0.055695	-0.050201	-0.087891	-0.27939	0.022278	0.22598	-0.010529	0.79819	-0.21942	0.000916	-0.010376
49.803	0.009918	-0.79834	-0.053253	0.002747	-0.00824	0.00412	-0.020142	0.015869	-0.20264	0.067291	-0.10391	0.001221	0.038452	0.015411	-0.027618	0.008698	0.029755	-0.10605	0.58579	0.022583	0.1561	-0.005188	-0.075989	-0.048676	-0.075378	0.018005	-0.19653	-0.006409	0.61661	-0.24139	-0.002136	-0.011292
49.804	0.007019	-0.75836	-0.048828	-0.019379	-0.001526	0.005188	-0.022583	0.015717	-0.11841	0.072479	-0.02182	-0.003662	0.010986	-0.003662	0.050354	0.003662	0.014191	-0.079193	0.73654	0.050507	0.088501	-0.081177	-0.11047	-0.027924	-0.030365	0.007172	-0.63065	0.003662	-0.096588	-0.298	-0.002441	-0.00885
49.805	0.008087	-0.7457	-0.03952	-0.024109	-0.007324	-0.003357	-0.024567	0.009766	-0.054321	0.070343	0.032349	0.001373	0.013123	0.005798	0.36499	0.007324	0.005951	-0.13962	0.37582	0.00885	-0.069122	-0.18158	-0.03479	-0.033417	-0.047455	0.008698	-0.55588	0.002136	-1.2375	-0.34409	-0.000763	-0.014343
49.806	0.006409	-0.71411	-0.044556	-0.007019	-0.005493	-0.014801	-0.028076	0.014038	0.018463	0.057526	0.081482	0.002136	0.013428	-0.016327	1.2453	0.017395	0.023956	-0.097351	-0.053406	-0.15091	-0.20874	-0.13321	-0.025482	-0.12985	-0.061493	0.010529	-0.23804	0.001068	-1.6957	-0.36194	0.003052	-0.013885
49.807	0.006714	-0.71747	0.001831	-0.007172	-0.006866	-0.021667	-0.041199	0.015106	0.065918	-0.010681	0.090179	0.009003	0.061798	0.012207	-0.36652	0.006409	0.026245	-0.12207	0.33554	-0.26535	-0.36926	-0.083618	0.019684	-0.12116	-0.048981	0.003662	0.30395	-0.000305	-0.14358	-0.25269	-0.001984	-0.018616
49.808	0.007324	-0.71228	-0.018616	-0.003357	-0.014343	-0.012665	-0.02655	0.01236	0.11063	-0.01358	-0.13672	0.008698	0.11932	0.064697	-0.27039	0.006409	0.006409	-0.13687	0.60532	-0.21698	-0.2504	-0.045319	0.006104	-0.066376	-0.010681	0.003204	0.26733	0.000763	0.40253	-0.19424	0.002441	-0.011292
49.809	0.011292	-0.66009	-0.021057	0.004578	-0.007782	-0.015869	-0.03479	0.013733	0.14038	0.005341	-0.2681	0.004272	0.10269	0.026245	-0.36957	-0.00061	-0.00946	-0.13397	0.45502	-0.071869	-0.007019	0.015259	-0.030518	0.12711	0.01709	0.008545	0.28366	-0.002594	0.48782	-0.23163	-0.004578	-0.019684
49.81	0.000305	-0.55084	0.002899	0.002747	-0.007324	0.007172	-0.035706	0.009155	0.1593	0.010529	-0.22461	-0.000458	0.030518	-0.068512	-0.19257	-0.010529	-0.031891	-0.14069	0.32288	0.17853	0.14969	0.062256	0.00412	0.14542	0.019989	0.019531	-0.037384	-0.002136	0.094147	-0.18616	-0.001526	-0.007782
49.811	0.001984	-0.49561	0.014801	0.001221	-0.010223	0.003662	-0.033417	0.01236	0.18051	0.01236	-0.072632	-0.002136	0.011749	-0.044556	-0.21912	0.005493	-0.06897	-0.088654	0.30151	0.22186	0.012207	0.053864	-0.03479	0.17944	0.037384	0.032349	-0.26138	-0.004883	0.04303	-0.041809	-0.002136	0.002289
49.812	0.000305	-0.39963	-0.028534	0.001984	-0.016174	-0.019379	-0.048218	0.015869	0.20172	-0.000763	0.17761	0.002136	0.011444	0.001984	0.16342	-0.00412	-0.079651	-0.028992	0.53467	0.13031	-0.1059	0.10712	-0.027924	0.1741	0.039825	0.013428	-0.097504	-0.007477	-0.16083	0.10422	-0.002747	-0.003967
49.813	-0.000153	-0.36423	-0.006866	0.022888	-0.0177	-0.013885	-0.029755	0.013428	0.23773	-0.037689	0.26947	0.00351	0.044098	0.16739	0.23392	-0.003662	-0.045929	-0.042419	1.1217	-0.1062	-0.07843	0.046387	-0.013123	0.14847	0.042572	0.005951	-0.18295	0.003204	-0.24719	0.10681	0.005951	-0.017242
49.814	0	-0.31723	-0.009918	0.009155	0.003204	-0.023956	-0.033417	0.015717	0.24139	-0.06546	0.17716	0.000916	0.10788	0.14206	-0.15228	0.003662	-0.018158	-0.11078	1.7885	-0.13062	-0.070038	-0.083618	0.064545	-0.03418	-0.006714	0.011139	-0.14084	0.010071	-0.031586	0.000458	-0.007629	-0.016022
49.815	0.006866	-0.31265	-0.070496	-0.006409	-0.009613	-0.02182	-0.029297	0.016479	0.26733	-0.053558	0.077209	0.003204	0.13611	-0.077209	-0.33249	0.015259	-0.012054	-0.14435	1.4558	0.01709	0.12878	-0.091553	0.17471	-0.21347	-0.035706	0.009613	-0.055542	0.009155	-0.095825	-0.15549	-0.002899	-0.013123
49.816	0.000458	-0.28061	-0.11292	0.010071	-0.0177	-0.023956	0.023804	0.010529	0.2713	-0.02655	0.058899	-0.007019	0.099487	-0.17609	-0.30991	0.014496	-0.000916	-0.16922	0.68436	0.15182	0.2565	-0.16754	0.11047	-0.25559	0.33005	-0.009766	0.029602	-0.035248	-0.29831	-0.37521	-0.007172	-0.021973
49.817	0.003204	-0.19699	-0.13641	0.009308	-0.00412	-0.023499	0.068665	0.014954	0.26932	-0.00412	-0.029144	0.006561	0.046234	-0.013733	0.031128	-0.018158	-0.003967	-0.065918	0.30426	0.086823	0.12695	-0.33264	0.047302	-0.21576	0.37994	-0.033264	0.045166	-0.10422	-0.42175	-0.061646	-0.00061	-0.015564
49.818	0.001526	-0.19165	-0.17044	0.005341	-0.012665	-0.032196	0.088806	0.012512	0.27954	0.005341	-0.006561	0.00824	0.034027	0.024261	-0.1683	-0.027313	-0.006104	-0.038605	0.058441	0.02182	0.12451	-0.18204	-0.10025	-0.14023	0.38452	-0.06424	-0.000305	0.039215	-0.5423	0.4068	-0.002441	-0.015259
49.819	-0.002136	-0.15854	-0.11871	0.008087	-0.017853	-0.031433	0.039215	0.012665	0.27863	0.01358	0.030518	0.007019	0.017548	-0.09903	-0.22232	-0.005951	-0.011902	-0.041962	0.096588	0.016479	0.052948	-0.005493	-0.059509	0.16205	0.383	-0.032654	-0.028229	0.023193	0.11475	0.36438	-0.001678	-0.016022
49.82	0	-0.12772	0.023651	-0.001678	-0.016785	-0.044708	-0.007629	0.007477	0.28625	0.029602	0.059357	0.004883	0.00824	-0.11612	-0.092468	-0.009918	0.024719	-0.086823	-0.33279	0.037842	-0.053406	0.068359	0.067291	0.15457	0.3067	-0.038757	0.040131	0.011292	0.47684	0.20981	0.001984	-0.028229
49.821	-0.006561	-0.084839	0.13397	0.00473	-0.020752	-0.043182	-0.008545	0.001068	0.29205	-0.034485	0.014038	-0.002747	0.032501	-0.009918	0.11383	0.01358	0.011749	0.026855	-0.058441	0.11139	0.00351	0.1442	0.14542	0.23727	0.034027	-0.068817	0.10361	0.002747	0.044403	-0.008392	0.003052	-0.028992
49.822	0.007172	0.006104	0.14984	0.010529	-0.00885	-0.068054	-0.030823	0.006714	0.30289	-0.04776	-0.11917	0.004425	0.08255	0.019073	0.15457	0.01297	0.001831	0.079956	0.38528	0.1329	0.047302	0.11276	0.26428	0.099945	-0.34485	-0.062714	0.1236	-0.007477	0.022278	0.10193	-0.000458	-0.027618
49.823	0.002594	0.10254	0.084381	0.005951	-0.006561	-0.063629	-0.0737	0.010376	0.29862	-0.073242	-0.090942	-0.006561	0.074921	0.020142	0.091705	0.004272	-0.018921	0.063934	0.018463	0.058899	0.11261	0.024261	0.22125	-0.090179	-0.64026	-0.020752	0.050354	-0.001526	0.55786	0.36224	-0.000916	-0.028229
49.824	0.006714	0.13886	0.058899	0.006104	-0.012512	-0.081787	-0.10147	0.004578	0.30853	-0.049744	-0.037842	-0.00885	0.059967	0.003357	0.024261	0.007324	-0.021362	0.13184	0.53528	-0.024109	0.13382	-0.09903	-0.052185	-0.1178	-0.26459	0.017242	0.054474	0.015411	0.35202	0.8403	-0.001373	-0.023651
49.825	0.004578	0.17364	0.029449	0.006866	-0.001068	-0.080109	-0.076447	0.00946	0.30014	-0.075531	-0.041656	-0.002136	0.029907	-0.030823	-0.078125	0.000763	0.005341	0.12619	0.50552	-0.072632	0.029907	-0.10925	-0.23941	-0.1329	-0.090485	0.03479	0.068207	0.011597	0.15656	0.68237	-0.001678	-0.026245
49.826	0.007324	0.25131	0.01297	0.005188	-0.011139	-0.09552	-0.067444	0.010223	0.30472	-0.057068	-0.014801	0.001068	0.020905	-0.078735	-0.068817	0.025787	0.019684	0.15579	0.51315	-0.069122	-0.059204	-0.10132	-0.14893	-0.06134	-0.16998	-0.024567	0.11032	-0.019836	-0.15762	0.32806	-0.001831	-0.011902
49.827	0.008698	0.30563	0.016022	-0.003662	-0.011444	-0.092316	-0.081024	0.007629	0.29785	-0.027771	-0.024261	-0.009003	0.043945	-0.12863	0.12634	-0.000153	0.018768	0.20905	0.36224	-0.075378	-0.071259	-0.10803	-0.08667	0.18295	-0.035706	0.002136	0.093231	-0.004883	0.026398	-0.22171	0.000458	-0.024261
49.828	0.007782	0.32013	0.000305	0.009613	-0.002747	-0.069733	-0.063171	0.006409	0.28854	-0.00061	0.083466	-0.002594	0.059967	-0.11292	0.1622	0.018463	0.01358	0.20859	0.19028	-0.035858	-0.048065	-0.10254	0.028839	0.097961	0.038452	0.019531	0.088806	0.048523	0.57022	-0.2214	-0.001221	-0.017242
49.829	0.005646	0.39291	-0.013885	0.004578	0.007324	-0.064392	-0.050049	0.007324	0.27802	0.033264	0.06134	-0.003052	0.029144	-0.057068	0.15564	0.001373	-0.020905	0.29068	0.45441	-0.031433	0.024719	-0.14786	0.13153	0.065002	0.039368	0.019073	0.18936	0.00885	0.69748	-0.42007	0.004272	-0.024719
